<?xml version="1.0" standalone="no"?>
<!DOCTYPE svg PUBLIC "-//W3C//DTD SVG 20010904//EN"
 "http://www.w3.org/TR/2001/REC-SVG-20010904/DTD/svg10.dtd">
<svg version="1.0" xmlns="http://www.w3.org/2000/svg"
 width="512.000000pt" height="512.000000pt" viewBox="0 0 512.000000 512.000000"
 preserveAspectRatio="xMidYMid meet">
<metadata>
Created by potrace 1.16, written by Peter Selinger 2001-2019
</metadata>
<g transform="translate(0.000000,512.000000) scale(0.100000,-0.100000)"
fill="#000000" stroke="none">
<path d="M3712 5109 c-76 -8 -213 -42 -1074 -263 -181 -46 -328 -83 -328 -81
0 1 -14 56 -31 121 -34 131 -55 164 -102 164 -37 0 -663 -160 -682 -174 -33
-24 -33 -67 -2 -189 16 -65 27 -121 23 -124 -5 -5 -1125 -296 -1449 -377 -43
-10 -67 -41 -67 -83 0 -55 44 -215 76 -281 38 -79 133 -171 215 -210 l66 -32
12 -132 c46 -502 217 -1027 449 -1378 75 -114 200 -238 277 -275 115 -57 77
-63 1059 189 483 125 880 225 881 224 2 -2 10 -30 20 -63 50 -176 181 -291
346 -303 l67 -5 -15 -44 c-11 -31 -14 -71 -11 -136 3 -78 8 -101 35 -155 l31
-62 -61 0 c-72 0 -116 -22 -147 -72 -18 -30 -20 -51 -20 -208 0 -157 2 -178
20 -208 32 -51 75 -72 151 -72 l67 0 4 -98 c3 -83 8 -107 33 -157 37 -77 114
-153 190 -191 l60 -29 338 -3 337 -3 0 -179 c0 -167 1 -181 20 -200 19 -19 33
-20 300 -20 267 0 281 1 300 20 20 20 20 33 20 1140 0 1107 0 1120 -20 1140
-19 19 -33 20 -220 20 -187 0 -201 -1 -220 -20 -20 -20 -20 -33 -20 -594 0
-402 -3 -583 -11 -606 -16 -43 -59 -60 -154 -60 l-75 0 0 148 c0 129 -2 151
-20 180 -31 50 -75 72 -147 72 l-62 0 32 62 c31 58 32 67 32 177 0 108 -2 120
-29 175 -16 32 -47 78 -70 101 l-41 43 33 18 c18 9 52 39 76 64 90 97 129 223
107 347 -21 112 -25 103 59 128 244 71 413 231 497 467 21 61 26 96 29 208 l5
135 -59 226 -58 225 129 34 c140 36 157 48 157 110 0 45 -69 303 -109 406
-157 405 -551 697 -1002 744 -112 11 -128 11 -247 -1z m308 -173 c274 -49 528
-213 681 -438 64 -93 124 -231 159 -361 17 -66 30 -120 28 -121 -2 -2 -91 -25
-198 -52 -212 -53 -240 -68 -240 -124 0 -63 59 -93 137 -71 l32 9 15 -51 c103
-357 120 -497 78 -632 -59 -193 -196 -324 -397 -384 -111 -32 -1948 -502
-1951 -498 -2 1 5 30 16 64 57 183 57 534 -1 863 -39 225 -115 490 -195 685
-25 61 -48 117 -51 126 -3 12 15 20 95 38 84 19 108 21 155 12 131 -24 222
-108 260 -237 41 -139 130 -245 261 -310 74 -36 86 -39 180 -42 98 -3 109 -1
411 77 332 86 345 92 345 153 0 37 -40 78 -75 78 -15 0 -158 -34 -319 -75
-317 -81 -363 -87 -449 -55 -101 38 -164 111 -207 239 -79 236 -309 374 -545
328 -44 -9 -440 -109 -880 -222 -606 -157 -815 -207 -860 -207 -148 0 -270 98
-310 247 -10 36 -16 67 -14 68 2 2 375 99 829 215 454 116 1221 313 1705 438
484 124 912 232 950 239 92 17 261 18 355 1z m-2115 -153 c-10 -41 -24 -51
-106 -74 -41 -12 -86 -27 -100 -35 -25 -13 -26 -12 -36 31 l-10 43 116 30
c148 38 145 38 136 5z m-741 -1195 c98 -231 182 -532 223 -798 23 -147 25
-533 4 -625 -21 -93 -50 -163 -83 -201 -104 -118 -303 66 -489 451 -148 307
-273 782 -282 1070 l-2 80 40 6 c22 3 54 9 72 13 l31 7 7 -68 c34 -360 111
-670 242 -973 53 -123 134 -269 176 -316 36 -42 85 -46 121 -11 21 21 25 37
31 128 22 324 -84 835 -250 1210 -25 56 -44 103 -43 104 6 4 123 33 139 34 10
1 30 -34 63 -111z m-264 -195 c52 -136 112 -338 139 -473 24 -120 53 -321 48
-327 -7 -7 -104 259 -136 372 -33 119 -75 317 -85 405 -4 30 -9 72 -12 93 -3
20 -3 37 -1 37 3 0 24 -48 47 -107z m755 52 c62 -61 -4 -168 -84 -136 -80 34
-57 161 29 161 19 0 40 -9 55 -25z m2174 -1102 c8 -48 9 -84 2 -120 -11 -56
-41 -122 -63 -140 -7 -7 -78 -28 -158 -48 -192 -49 -244 -42 -333 44 -28 27
-43 54 -59 104 -11 37 -19 70 -16 72 3 3 449 120 563 148 50 12 53 10 64 -60z
m1131 -983 l0 -801 -552 3 c-545 3 -554 3 -593 25 -85 45 -126 114 -133 220
l-5 73 469 0 c523 0 512 -1 583 71 73 72 71 51 71 662 l0 547 80 0 80 0 0
-800z m-993 514 c102 -64 135 -200 75 -307 -88 -158 -316 -158 -405 1 -118
210 123 434 330 306z m273 -714 l0 -120 -400 0 -400 0 0 120 0 120 400 0 400
0 0 -120z m720 -880 l0 -120 -160 0 -160 0 0 120 0 120 160 0 160 0 0 -120z"/>
<path d="M4140 3824 c-104 -27 -140 -53 -140 -103 0 -30 28 -66 59 -76 31 -9
209 40 237 66 45 42 22 116 -41 132 -11 3 -63 -6 -115 -19z"/>
<path d="M3780 1740 c-29 -29 -27 -90 3 -118 53 -50 137 -13 137 59 0 69 -91
108 -140 59z"/>
</g>
</svg>
