<?xml version="1.0" standalone="no"?>
<!DOCTYPE svg PUBLIC "-//W3C//DTD SVG 20010904//EN"
 "http://www.w3.org/TR/2001/REC-SVG-20010904/DTD/svg10.dtd">
<svg version="1.0" xmlns="http://www.w3.org/2000/svg"
 width="512.000000pt" height="512.000000pt" viewBox="0 0 512.000000 512.000000"
 preserveAspectRatio="xMidYMid meet">
<metadata>
Created by potrace 1.16, written by Peter Selinger 2001-2019
</metadata>
<g transform="translate(0.000000,512.000000) scale(0.100000,-0.100000)"
fill="#000000" stroke="none">
<path d="M1886 5109 c-161 -38 -313 -182 -368 -348 -21 -62 -22 -86 -26 -447
l-3 -381 -40 -12 c-49 -15 -101 -60 -125 -109 -28 -55 -28 -372 -1 -450 37
-105 143 -197 249 -217 35 -7 38 -11 53 -61 30 -105 147 -302 209 -353 13 -11
16 -37 16 -147 l0 -134 -62 0 c-60 0 -64 2 -85 34 -12 18 -41 43 -65 55 -42
20 -60 21 -294 21 -221 0 -254 -3 -290 -19 -69 -31 -104 -102 -104 -208 0 -51
-1 -53 -38 -72 -66 -34 -204 -141 -279 -217 -147 -149 -260 -332 -328 -536
-65 -194 -67 -217 -72 -811 -3 -296 -2 -559 2 -585 5 -33 16 -55 40 -79 l33
-33 583 0 584 0 50 24 c55 25 102 73 137 139 23 42 23 43 23 517 l0 475 -30
53 c-35 63 -71 97 -142 129 l-53 24 0 228 c0 216 -1 230 -21 255 -27 34 -77
36 -107 3 -21 -23 -22 -31 -22 -255 l0 -232 -100 0 -100 0 2 523 3 522 225 3
c203 2 226 1 237 -15 9 -12 13 -71 13 -208 0 -224 13 -295 81 -428 40 -78 63
-103 431 -472 l388 -390 0 -372 0 -373 -292 0 c-316 0 -332 -3 -356 -53 -14
-30 -9 -58 14 -82 14 -13 190 -15 1486 -15 l1470 0 33 33 c24 24 35 46 40 79
4 25 5 284 2 574 -4 586 -8 626 -72 820 -43 129 -117 279 -150 300 -15 10 -37
14 -55 12 -16 -3 -30 -2 -30 1 0 3 -27 37 -59 75 -52 61 -58 72 -49 92 16 35
2 69 -47 115 -55 52 -167 134 -216 160 -36 18 -36 19 -41 91 -6 91 -29 142
-81 176 l-40 27 -260 3 c-248 3 -261 2 -304 -19 -24 -12 -54 -37 -66 -55 -21
-32 -25 -34 -84 -34 l-63 0 0 134 c0 110 3 136 16 147 62 51 179 248 209 352
16 54 16 54 62 61 104 14 195 83 245 184 33 66 33 67 36 237 3 111 0 186 -8
215 -17 62 -81 123 -148 140 l-50 13 -4 381 c-4 360 -5 385 -26 447 -42 127
-142 246 -257 304 -105 53 -127 55 -571 55 -379 0 -412 -1 -426 -17 -8 -10
-18 -26 -21 -35 -5 -15 -20 -18 -99 -18 l-93 0 -15 33 -15 32 -90 2 c-49 1
-108 -3 -129 -8z m811 -389 c80 -35 103 -112 59 -205 -25 -54 -127 -195 -171
-235 l-27 -25 -50 55 c-60 66 -122 156 -148 213 -63 139 38 236 230 221 35 -3
84 -13 107 -24z m18 -900 c43 -11 112 -39 154 -62 200 -111 295 -147 439 -168
l82 -12 0 -122 c0 -152 -13 -238 -49 -343 -46 -134 -82 -185 -246 -349 -299
-298 -363 -341 -512 -352 -86 -6 -187 21 -249 66 -71 53 -383 348 -434 411
-58 73 -121 198 -145 291 -11 42 -19 123 -22 232 l-6 167 34 5 c19 3 57 8 84
12 106 13 219 58 406 162 144 80 308 102 464 62z m-1186 -153 c12 -20 28 -40
36 -44 10 -6 14 -49 16 -165 2 -87 3 -158 1 -158 -17 0 -67 37 -89 67 -28 36
-28 38 -31 206 -3 152 -2 171 15 189 18 20 18 20 23 -19 3 -21 16 -55 29 -76z
m2136 97 c14 -14 16 -40 13 -190 -3 -191 -7 -203 -78 -251 -64 -44 -65 -41
-62 134 3 143 5 158 23 171 27 19 59 85 59 122 0 34 19 40 45 14z m-1557
-1285 c178 -168 275 -214 452 -214 176 0 275 46 450 211 l95 89 3 -174 c3
-204 -6 -248 -71 -343 -50 -73 -141 -140 -222 -164 -45 -12 -97 -15 -277 -12
l-223 3 -67 32 c-130 61 -220 186 -239 331 -9 76 -12 332 -3 332 3 0 49 -41
102 -91z m1900 -1201 l2 -1128 -690 0 -690 0 0 373 0 372 388 390 c368 369
391 394 431 472 67 133 81 204 81 425 0 113 4 197 10 209 10 18 21 19 238 17
l227 -3 3 -1127z m-3418 -893 c0 -122 4 -175 14 -200 l15 -35 -115 0 -114 0 0
200 0 200 100 0 100 0 0 -165z m4140 -35 l0 -200 -285 0 -285 0 0 200 0 200
285 0 285 0 0 -200z"/>
<path d="M2091 3574 c-89 -75 22 -214 113 -143 38 30 49 64 36 105 -22 65 -95
84 -149 38z"/>
<path d="M2913 3582 c-28 -22 -45 -66 -37 -98 9 -34 60 -74 96 -74 45 0 88 48
88 98 0 33 -6 45 -31 66 -36 30 -84 34 -116 8z"/>
<path d="M2311 2934 c-12 -15 -21 -34 -21 -44 0 -10 9 -29 21 -44 l20 -26 229
0 229 0 20 26 c26 34 26 54 0 88 l-20 26 -229 0 -229 0 -20 -26z"/>
<path d="M2962 866 l-37 -34 -3 -194 c-2 -178 -1 -196 17 -225 40 -64 38 -64
487 -61 l406 3 34 37 34 38 0 191 c0 209 -5 230 -60 263 -25 14 -76 16 -434
16 l-406 0 -38 -34z m798 -236 l0 -130 -350 0 -350 0 0 123 c0 68 3 127 7 130
3 4 161 7 350 7 l343 0 0 -130z"/>
</g>
</svg>
